<svg width="20" height="20" viewBox="0 0 20 20" fill="none" xmlns="http://www.w3.org/2000/svg">
<g id="More Square">
<path id="More Square_2" fill-rule="evenodd" clip-rule="evenodd" d="M0.000243514 5.66502L0.000243893 14.334C0.000244042 17.7316 2.43284 19.999 5.91624 19.999L14.0842 19.999C17.5713 19.999 20.0002 17.7383 20.0002 14.334L20.0002 5.66602C20.0002 2.26141 17.5709 -0.000977331 14.0842 -0.000977178L5.91624 -0.000976821C2.42975 -0.000976669 0.000243365 2.26124 0.000243514 5.66502ZM1.50024 14.334L1.50024 5.66502C1.50024 3.11452 3.23521 1.49902 5.91624 1.49902L14.0842 1.49902C16.7654 1.49902 18.5002 3.11464 18.5002 5.66602L18.5002 14.334C18.5002 16.8849 16.766 18.499 14.0842 18.499L5.91624 18.499C3.23862 18.499 1.50024 16.8787 1.50024 14.334ZM10.0004 15.6769C10.6604 15.6769 11.1974 15.1399 11.1974 14.4789C11.1974 13.8179 10.6604 13.2809 10.0004 13.2809C9.34044 13.2809 8.80244 13.8179 8.80244 14.4789C8.80244 15.1399 9.34044 15.6769 10.0004 15.6769ZM11.1974 9.99952C11.1974 10.6605 10.6604 11.1975 10.0004 11.1975C9.34044 11.1975 8.80244 10.6605 8.80244 9.99952C8.80244 9.33852 9.34044 8.80152 10.0004 8.80152C10.6604 8.80152 11.1974 9.33852 11.1974 9.99952ZM10.0004 6.71852C10.6604 6.71852 11.1974 6.18152 11.1974 5.52052C11.1974 4.85952 10.6604 4.32252 10.0004 4.32252C9.34044 4.32252 8.80244 4.85952 8.80244 5.52052C8.80244 6.18152 9.34044 6.71852 10.0004 6.71852Z" fill="#071C3E"/>
</g>
</svg>
