<svg width="24" height="24" viewBox="0 0 24 24" fill="none" xmlns="http://www.w3.org/2000/svg">
<path d="M11.5201 7.87573C11.9177 7.87573 12.2401 8.19811 12.2401 8.59573V11.0419H14.6879C15.0855 11.0419 15.4079 11.3641 15.4079 11.7619C15.4079 12.1595 15.0855 12.4819 14.6879 12.4819H12.2401V14.925C12.2401 15.3225 11.9177 15.645 11.5201 15.645C11.1226 15.645 10.8001 15.3225 10.8001 14.925V12.4819H8.35232C7.95435 12.4819 7.63232 12.1595 7.63232 11.7619C7.63232 11.3641 7.95435 11.0419 8.35232 11.0419H10.8001V8.59573C10.8001 8.19811 11.1226 7.87573 11.5201 7.87573Z" fill="white"/>
<path fill-rule="evenodd" clip-rule="evenodd" d="M11.5202 2.3999C16.69 2.3999 20.8802 6.59018 20.8802 11.7599C20.8802 16.9287 16.69 21.1199 11.5202 21.1199C6.35032 21.1199 2.16016 16.9287 2.16016 11.7599C2.16016 6.59018 6.35032 2.3999 11.5202 2.3999ZM19.4402 11.7599C19.4402 7.38541 15.8945 3.8399 11.5202 3.8399C7.14578 3.8399 3.60016 7.38541 3.60016 11.7599C3.60016 16.1335 7.14578 19.6799 11.5202 19.6799C15.8945 19.6799 19.4402 16.1335 19.4402 11.7599Z" fill="white"/>
</svg>
